<svg xmlns="http://www.w3.org/2000/svg" viewBox="0 0 512 512">
  <rect width="512" height="512" rx="96" fill="#F59E0B"/>
  <g fill="#78350F" opacity="0.1">
    <polygon points="256,82 320,119 320,193 256,230 192,193 192,119"/>
    <polygon points="147,145 211,182 211,256 147,293 83,256 83,182"/>
    <polygon points="365,145 429,182 429,256 365,293 301,256 301,182"/>
    <polygon points="147,270 211,307 211,381 147,418 83,381 83,307"/>
    <polygon points="365,270 429,307 429,381 365,418 301,381 301,307"/>
    <polygon points="256,333 320,370 320,444 256,481 192,444 192,370"/>
  </g>
  <g transform="translate(76 56) scale(15)">
    <ellipse
      cx="6.5"
      cy="10.5"
      rx="4"
      ry="2.3"
      fill="#FFF7ED"
      opacity="0.62"
      transform="rotate(-12 6.5 10.5)"
    />
    <ellipse
      cx="17.5"
      cy="10.5"
      rx="4"
      ry="2.3"
      fill="#FFF7ED"
      opacity="0.62"
      transform="rotate(12 17.5 10.5)"
    />
    <path
      fill="#2A1606"
      fill-rule="evenodd"
      d="M7.8 15 a4.2 5.3 0 1 1 8.4 0 a4.2 5.3 0 1 1 -8.4 0 Z M8 12.5 h8 v1.5 H8 Z M8 15.5 h8 v1.5 H8 Z"
    />
    <circle cx="12" cy="8" r="2.4" fill="#2A1606" />
    <path
      d="M10.5 6 L8 3.5"
      stroke="#2A1606"
      stroke-width="1.3"
      stroke-linecap="round"
      fill="none"
    />
    <circle cx="7.5" cy="3" r="0.9" fill="#2A1606" />
    <path
      d="M13.5 6 L16 3.5"
      stroke="#2A1606"
      stroke-width="1.3"
      stroke-linecap="round"
      fill="none"
    />
    <circle cx="16.5" cy="3" r="0.9" fill="#2A1606" />
  </g>
</svg>
